<svg width="49" height="66" viewBox="0 0 49 66" fill="none" xmlns="http://www.w3.org/2000/svg">
<path fill-rule="evenodd" clip-rule="evenodd" d="M16.9442 13.3847V22.824C14.5615 26.0033 11.9662 29.1365 9.24026 32.3356V19.8945C9.24026 16.4325 8.90033 14.302 8.20087 13.5063C7.23011 12.4345 5.63179 11.8986 3.37976 11.8986H1.45459V10.4158H24.743C24.2461 11.4186 23.7232 12.4082 23.1773 13.3847H16.9442ZM34.4342 34.0452C34.6924 33.9039 34.9179 33.7493 35.1108 33.5784C36.5032 32.3422 37.268 30.1722 37.4315 27.0685H38.9056V46.1115H37.4315C37.0621 43.4451 36.6797 41.7289 36.3103 40.9727C35.8331 40.0389 35.0389 39.2959 33.9472 38.76C33.4406 38.5101 32.8032 38.3194 32.0416 38.1846C33.1137 36.8793 33.8884 35.4754 34.4342 34.0452ZM16.9442 56.2807C16.954 58.5164 17.0619 59.8841 17.258 60.3839C17.477 60.9066 17.8463 61.3308 18.3791 61.6332C18.9119 61.9489 19.9349 62.1001 21.4254 62.1001H30.6165C33.6759 62.1001 35.9018 61.8798 37.2942 61.4557C38.6735 61.0283 40.0136 60.1767 41.2818 58.9142C42.9357 57.2506 44.6288 54.7387 46.3644 51.3851H48.0019L43.3181 65.069H1.45459V63.5862H1.703L1.71607 63.652L4.00732 63.6487L4.02693 63.5566C5.07614 63.4678 6.07304 63.1621 7.02746 62.6492C7.88709 62.2218 8.47542 61.5774 8.77613 60.7127C8.90687 60.3543 9.0082 59.8447 9.08337 59.1773C10.3646 58.306 11.5511 57.7043 12.669 57.2769C14.1856 56.7015 15.5943 56.4418 16.9442 56.2807ZM32.6692 10.4158H43.3312L43.9032 22.4491H42.3473C41.7884 19.5526 41.1707 17.5569 40.4908 16.4719C39.8077 15.3869 38.7977 14.5617 37.4739 13.9863C36.513 13.628 34.882 13.4241 32.594 13.388C32.6594 12.3786 32.6823 11.3824 32.6692 10.4158Z" fill="url(#paint0_linear)"/>
<path fill-rule="evenodd" clip-rule="evenodd" d="M4.46239 61.3539C4.46239 61.3539 6.6229 54.4298 14.4282 51.3129C25.404 46.4831 30.0616 43.2282 32.8824 39.513C33.0458 46.1675 30.2022 50.6126 24.4103 53.5355C18.4354 56.2381 13.464 52.6116 4.46239 61.3539ZM1.30171 57.3921C1.85409 52.1645 3.81195 47.9627 8.23756 44.1093C18.3897 35.2717 21.6288 34.3018 28.107 24.2082C34.1833 14.6669 29.993 0 29.993 0C25.9956 15.5218 15.9088 26.5261 4.70753 39.5623C-2.09104 47.6437 0.138106 51.8193 1.30171 57.3921ZM2.86407 62.8795C3.57988 59.3155 7.0903 54.2325 11.1237 51.4971C20.3737 45.2206 24.7568 44.642 30.8592 37.6159C36.5856 30.9745 33.5851 21.1407 33.5851 21.1407C29.4014 31.78 18.4518 39.1875 8.09701 48.344C1.80179 54.0122 2.09596 59.1314 2.86407 62.8795Z" fill="url(#paint1_linear)"/>
<defs>
<linearGradient id="paint0_linear" x1="24.7296" y1="64.085" x2="24.7297" y2="11.5415" gradientUnits="userSpaceOnUse">
<stop stop-color="#CE853C"/>
<stop offset="1" stop-color="#FFE4B9"/>
</linearGradient>
<linearGradient id="paint1_linear" x1="19.6663" y1="55.5508" x2="12.6739" y2="7.33971" gradientUnits="userSpaceOnUse">
<stop stop-color="#CE853C"/>
<stop offset="1" stop-color="#FFE4B9"/>
</linearGradient>
</defs>
</svg>
