<svg width="24" height="24" viewBox="0 0 24 24" fill="none" xmlns="http://www.w3.org/2000/svg">
<path d="M22.7004 5.76988L22.6936 5.7422C22.1334 3.47759 19.608 1.04763 17.2887 0.542097L17.2626 0.536692C13.5114 -0.178897 9.7078 -0.178897 5.95738 0.536692L5.93044 0.542097C3.61202 1.04763 1.08649 3.47775 0.525596 5.7422L0.519372 5.76988C-0.173124 8.93238 -0.173124 12.1397 0.519372 15.3022L0.525596 15.3299C1.06266 17.4978 3.4 19.8162 5.63267 20.4537V22.9816C5.63267 23.8966 6.74766 24.346 7.38168 23.6857L9.94292 21.0234C10.4985 21.0544 11.0543 21.0718 11.61 21.0718C13.4982 21.0718 15.3873 20.8932 17.2625 20.5355L17.2886 20.5301C19.6079 20.0245 22.1333 17.5944 22.6935 15.3299L22.7004 15.3023C23.3929 12.1397 23.3929 8.93255 22.7004 5.76988ZM20.6735 14.8437C20.2995 16.3211 18.382 18.1578 16.8585 18.4972C14.8639 18.8765 12.8535 19.0386 10.8451 18.983C10.8052 18.9818 10.7668 18.9974 10.739 19.0261C10.4539 19.3186 8.86896 20.9458 8.86896 20.9458L6.87992 22.9873C6.73447 23.139 6.47896 23.0357 6.47896 22.8264V18.6387C6.47896 18.5695 6.42958 18.5108 6.36161 18.4974C6.3612 18.4972 6.36087 18.4972 6.36046 18.4971C4.83691 18.1577 2.92009 16.321 2.54543 14.8436C1.92213 11.985 1.92213 9.08708 2.54543 6.22849C2.92009 4.75104 4.83691 2.91432 6.36046 2.57495C9.84391 1.91243 13.3758 1.91243 16.8585 2.57495C18.3828 2.91432 20.2996 4.75104 20.6736 6.22849C21.2975 9.08716 21.2975 11.9851 20.6735 14.8437Z" fill="white"/>
<path d="M14.9238 16.7766C14.6896 16.7054 14.4664 16.6577 14.259 16.5718C12.1108 15.6805 10.1339 14.5307 8.56799 12.7683C7.67748 11.7661 6.98048 10.6345 6.39133 9.43708C6.11191 8.86923 5.87646 8.27918 5.63643 7.69282C5.41761 7.15822 5.73995 6.60592 6.07932 6.20301C6.3978 5.8249 6.80768 5.53565 7.25155 5.32232C7.59796 5.15591 7.93962 5.25189 8.19267 5.54548C8.73956 6.18032 9.24206 6.84759 9.64875 7.58349C9.89894 8.03612 9.83031 8.5894 9.37686 8.8974C9.26663 8.97225 9.16623 9.06021 9.06362 9.14472C8.97353 9.21883 8.88885 9.29369 8.82711 9.39401C8.71434 9.57753 8.70893 9.79414 8.78149 9.99372C9.34058 11.5301 10.2829 12.725 11.8295 13.3686C12.077 13.4715 12.3255 13.5913 12.6106 13.5582C13.0881 13.5024 13.2427 12.9786 13.5773 12.705C13.9043 12.4376 14.3223 12.4341 14.6745 12.657C15.0269 12.8801 15.3684 13.1194 15.7079 13.3614C16.0412 13.5989 16.373 13.831 16.6803 14.1018C16.976 14.3622 17.0778 14.7037 16.9113 15.0569C16.6066 15.7039 16.1632 16.2421 15.5237 16.5857C15.3431 16.6825 15.1274 16.7139 14.9238 16.7766C14.6896 16.7054 15.1274 16.7139 14.9238 16.7766Z" fill="white"/>
<path d="M11.6157 4.58265C14.4254 4.66144 16.7333 6.52608 17.2278 9.30393C17.3121 9.77727 17.3421 10.2611 17.3796 10.7416C17.3954 10.9436 17.2809 11.1356 17.0629 11.1383C16.8377 11.141 16.7364 10.9525 16.7217 10.7506C16.6928 10.3508 16.6727 9.94909 16.6176 9.55272C16.3268 7.45959 14.6578 5.72794 12.5744 5.35639C12.2608 5.30045 11.9401 5.2858 11.6225 5.25246C11.4217 5.23142 11.1588 5.2193 11.1144 4.96968C11.0771 4.76045 11.2537 4.59387 11.4529 4.58315C11.5069 4.57995 11.5614 4.58249 11.6157 4.58265C14.4256 4.66144 11.5614 4.58249 11.6157 4.58265Z" fill="white"/>
<path d="M15.8859 10.1181C15.8813 10.1532 15.8789 10.2357 15.8583 10.3133C15.7837 10.5954 15.3559 10.6307 15.2576 10.3461C15.2283 10.2617 15.224 10.1655 15.2238 10.0746C15.2229 9.47958 15.0935 8.88503 14.7934 8.36721C14.4849 7.83498 14.0135 7.38776 13.4608 7.11694C13.1265 6.95331 12.7651 6.85152 12.3987 6.791C12.2386 6.76447 12.0768 6.7485 11.9159 6.72606C11.7209 6.69895 11.6167 6.57472 11.6261 6.38259C11.6347 6.20259 11.7663 6.07295 11.9625 6.08417C12.6072 6.1207 13.2301 6.26024 13.8035 6.56374C14.9691 7.18114 15.6351 8.15552 15.8295 9.45673C15.8383 9.51578 15.8524 9.57409 15.8569 9.63321C15.8678 9.77915 15.8748 9.92533 15.8859 10.1181C15.8813 10.1531 15.8748 9.92533 15.8859 10.1181Z" fill="white"/>
<path d="M14.1382 10.05C13.9032 10.0542 13.7774 9.92402 13.7531 9.70864C13.7363 9.55844 13.7228 9.40612 13.687 9.25986C13.6164 8.97183 13.4633 8.70502 13.2211 8.52854C13.1068 8.44526 12.9771 8.38457 12.8414 8.34526C12.669 8.29539 12.4898 8.30915 12.3179 8.26706C12.1311 8.22128 12.0278 8.06994 12.0572 7.89477C12.0839 7.73524 12.239 7.61076 12.4134 7.62345C13.5027 7.70207 14.2813 8.26525 14.3924 9.54771C14.4004 9.63821 14.4095 9.73378 14.3895 9.8205C14.3549 9.96849 14.2452 10.0428 14.1382 10.05C13.9031 10.0541 14.2452 10.0428 14.1382 10.05Z" fill="white"/>
</svg>
