<svg width="24" height="24" viewBox="0 0 24 24" fill="none" xmlns="http://www.w3.org/2000/svg">
<path d="M18.9798 24C18.5048 23.8519 18.0522 23.7526 17.6315 23.5739C13.2751 21.7196 9.26585 19.3275 6.09021 15.6607C4.28424 13.5755 2.87072 11.2214 1.67593 8.73007C1.10926 7.54864 0.631772 6.32105 0.144987 5.10111C-0.298783 3.98886 0.354912 2.83981 1.04315 2.00153C1.68905 1.21488 2.52029 0.613095 3.42045 0.169251C4.12297 -0.176964 4.81586 0.0227213 5.32905 0.633539C6.43815 1.95434 7.45723 3.34261 8.28199 4.87365C8.78937 5.81535 8.65019 6.96645 7.7306 7.60726C7.50705 7.76298 7.30343 7.94597 7.09533 8.12181C6.91264 8.276 6.74092 8.43173 6.61569 8.64045C6.387 9.02227 6.37603 9.47293 6.52318 9.88815C7.65702 13.0847 9.56812 15.5705 12.7046 16.9096C13.2065 17.1237 13.7104 17.373 14.2887 17.304C15.2569 17.188 15.5705 16.0982 16.2491 15.529C16.9123 14.9727 17.7599 14.9654 18.4742 15.4291C19.1889 15.8933 19.8815 16.3911 20.57 16.8946C21.246 17.3887 21.9188 17.8717 22.5421 18.4352C23.1416 18.9768 23.3481 19.6873 23.0104 20.4222C22.3926 21.7683 21.4933 22.8879 20.1963 23.6028C19.8301 23.8042 19.3927 23.8695 18.9798 24C18.5048 23.8519 19.3927 23.8695 18.9798 24Z" fill="white"/>
<path d="M20.6894 9.89142C20.6804 9.96314 20.6758 10.1315 20.6357 10.29C20.4909 10.8657 19.6599 10.9378 19.4688 10.3568C19.412 10.1845 19.4036 9.98821 19.4033 9.80265C19.4014 8.58795 19.1502 7.37425 18.5672 6.31719C17.9679 5.23071 17.0523 4.31776 15.9787 3.76491C15.3293 3.43089 14.6273 3.22309 13.9156 3.09955C13.6046 3.04539 13.2903 3.01279 12.9777 2.96698C12.5989 2.91164 12.3966 2.65804 12.4147 2.26584C12.4314 1.89839 12.687 1.63375 13.0682 1.65665C14.3206 1.73121 15.5305 2.01608 16.6442 2.63564C18.9086 3.89598 20.2022 5.88504 20.5798 8.5413C20.5969 8.66184 20.6242 8.78087 20.633 8.90157C20.6543 9.19948 20.6678 9.49789 20.6894 9.89142C20.6804 9.9628 20.6678 9.49789 20.6894 9.89142Z" fill="white"/>
<path d="M17.6501 9.92915C17.1533 9.93786 16.8875 9.6716 16.8361 9.23119C16.8006 8.92407 16.7722 8.6126 16.6964 8.31352C16.5472 7.72458 16.2237 7.179 15.7117 6.81813C15.47 6.64783 15.196 6.52374 14.9092 6.44336C14.5448 6.34138 14.1661 6.36952 13.8028 6.28344C13.408 6.18984 13.1895 5.88037 13.2517 5.52218C13.3081 5.19598 13.6359 4.94144 14.0045 4.9674C16.3069 5.12816 17.9525 6.27976 18.1874 8.90213C18.2042 9.08717 18.2236 9.2826 18.1811 9.45994C18.1081 9.76253 17.8762 9.91441 17.6501 9.92915C17.1532 9.93769 17.8762 9.91441 17.6501 9.92915Z" fill="white"/>
</svg>
